<svg width="296" height="87" viewBox="0 0 296 87" fill="none"
  xmlns="http://www.w3.org/2000/svg">
  <path d="M141.185 35.8359C131.76 35.8359 124.921 42.5788 124.921 51.8702C124.921 61.35 132.183 67.718 142.993 67.718C147.69 67.718 152.038 66.0377 154.978 63.0964L151.16 59.8503C148.421 62.095 145.19 62.3584 142.978 62.3584C142.648 62.3584 142.342 62.3535 142.066 62.3486C141.909 62.3456 141.762 62.3426 141.625 62.3416C135.748 62.2824 130.965 57.4162 130.965 51.4923C130.965 45.2536 135.44 40.7258 141.607 40.7258C147.086 40.7258 150.15 43.9453 150.255 48.1751L150.267 48.4652H138.908C137.876 48.4662 137.056 48.7336 136.375 49.148C135.354 49.7676 134.679 50.7306 134.273 51.5387C134.071 51.9422 133.932 52.3073 133.845 52.5697C133.828 52.6171 133.817 52.6575 133.804 52.699H133.791V52.7444L156.408 52.7335C156.406 52.7098 156.403 52.6852 156.401 52.6615C156.431 52.6615 156.453 52.6615 156.463 52.6605C156.547 51.9866 156.509 51.0394 156.467 50.3438C155.914 40.8354 150.551 35.8359 141.185 35.8359Z" fill="black"/>
  <path d="M223.338 25.7627C222.403 25.7627 221.577 26.1258 220.865 26.849C220.152 27.5732 219.795 28.403 219.795 29.3384C219.795 30.2954 220.152 31.137 220.865 31.8603C221.577 32.5855 222.403 32.9466 223.338 32.9466C224.34 32.9466 225.198 32.5914 225.911 31.878C226.623 31.1647 226.98 30.3191 226.98 29.3384C226.98 28.3359 226.623 27.4894 225.911 26.7987C225.198 26.108 224.34 25.7627 223.338 25.7627Z" fill="black"/>
  <path d="M125.569 35.9004H118.347L104.342 51.6367L119.742 67.3246H127.9L112.111 51.6199L125.569 35.9004Z" fill="black"/>
  <path d="M78.1054 35.9824C73.2885 35.9824 69.2837 37.5108 66.0908 40.5674C62.898 43.6241 61.3016 47.4474 61.3016 52.0374C61.3016 56.582 62.8812 60.3707 66.0395 63.4037C69.1988 66.4377 73.1297 67.9552 77.8331 67.9552C82.6944 67.9552 86.7298 66.4604 89.9335 63.4728C93.1382 60.4842 94.7396 56.729 94.7396 52.2071C94.7396 47.5491 93.1589 43.6804 90.0026 40.601C86.8433 37.5226 82.8769 35.9824 78.1054 35.9824ZM85.5202 59.2795C83.5765 61.2005 81.0832 62.1596 78.0373 62.1596C74.9708 62.1596 72.4597 61.2114 70.5042 59.314C68.5496 57.4167 67.5738 54.9678 67.5738 51.9683C67.5738 48.9472 68.5269 46.4588 70.4371 44.5042C72.3463 42.5506 74.7883 41.5729 77.765 41.5729C80.8326 41.5729 83.3772 42.5506 85.3998 44.5042C87.4215 46.4588 88.4338 48.9245 88.4338 51.9002C88.4338 54.9007 87.4619 57.3604 85.5202 59.2795Z" fill="black"/>
  <path d="M260.905 54.9048V49.0766C260.907 46.2883 260.513 44.2202 259.899 42.9198L259.893 42.904C259.241 41.4053 258.124 40.0358 256.502 38.7936C253.876 36.7926 250.544 35.7764 246.424 35.7744C242.282 35.7764 238.935 36.7926 236.314 38.7906C234.718 40.0299 233.628 41.3964 232.999 42.8912C232.335 44.6001 231.995 46.6603 231.995 49.0766V54.9048L231.96 67.915C232.035 67.8992 232.067 67.8814 232.163 67.8597C232.539 67.7719 233.066 67.6318 233.649 67.4246C234.816 67.0131 236.202 66.3264 237.098 65.2914C237.65 64.6501 238.019 63.8874 238.071 62.9441L238.087 62.9353C238.087 62.9353 238.212 56.3947 238.237 53.7139C238.284 48.6178 239.171 45.8917 240.459 44.4541C241.749 43.0155 244.021 42.1404 246.424 42.1463C248.828 42.1404 251.664 42.8103 252.954 44.2489C254.243 45.6864 254.944 48.5675 254.953 53.7139C254.956 55.7257 254.955 60.736 254.954 62.4617H254.947C254.947 62.6442 254.945 62.7577 254.945 62.7863C254.945 62.7863 254.944 62.8573 254.944 62.8938C254.944 62.9668 254.949 63.0359 254.953 63.106V63.1563L254.955 63.1573C255.016 64.0492 255.37 64.7744 255.898 65.3851C256.764 66.3876 258.107 67.0516 259.237 67.4502C259.8 67.6505 260.309 67.7867 260.676 67.8715C260.768 67.8923 260.848 67.911 260.92 67.9258L260.905 54.9048Z" fill="black"/>
  <path d="M280.21 51.909L293.669 36.1885H286.447L272.442 51.9257L287.841 67.6137H296L280.21 51.909Z" fill="black"/>
  <path d="M50.6554 37.9051L45.8553 35.9614V63.3975C45.9855 64.1434 46.3822 64.7887 46.8479 65.3284C47.7497 66.3713 49.1478 67.0629 50.3229 67.4773C50.91 67.6865 51.4398 67.8276 51.8206 67.9164C51.9144 67.9371 51.9992 67.9559 52.0742 67.9716L52.0496 46.051C52.0496 39.3496 60.6365 41.8843 60.6365 41.8843L64.7449 37.2085C64.7449 37.2085 55.6637 33.8894 50.6554 37.9051Z" fill="black"/>
  <path d="M164.681 37.7342L159.883 35.7895V68.1964C159.957 68.1806 160.041 68.1619 160.136 68.1402C160.517 68.0514 161.047 67.9103 161.634 67.7021C162.809 67.2867 164.208 66.5951 165.108 65.5522C165.709 64.8556 166.099 64.0189 166.1 62.9612C166.1 62.9237 166.076 45.8801 166.076 45.8801C166.076 39.1777 174.662 41.7134 174.662 41.7134L178.772 37.0376C178.772 37.0376 169.691 33.7185 164.681 37.7342Z" fill="black"/>
  <path d="M103.858 23.1119C103.854 22.0818 103.645 21.2649 103.058 20.5851C102.177 19.5648 100.809 18.889 99.6608 18.4835C99.0866 18.2792 98.5686 18.1411 98.1956 18.0543C98.1029 18.0335 98.02 18.0158 97.946 18L97.9993 67.8363C98.0683 67.8225 98.1473 67.8048 98.2361 67.784C98.5922 67.7012 99.0876 67.5699 99.6352 67.3756C100.732 66.9878 102.037 66.3425 102.878 65.3687C103.44 64.7175 103.948 63.9311 103.949 62.9445C103.949 62.9089 103.858 23.1119 103.858 23.1119Z" fill="black"/>
  <path d="M212.801 18.5118C211.652 18.9173 210.284 19.5942 209.403 20.6134C208.865 21.2389 208.502 21.9819 208.444 22.8975L208.433 22.9044V67.99C208.506 67.9742 208.589 67.9564 208.682 67.9357C209.054 67.8479 209.573 67.7107 210.148 67.5065C211.297 67.101 212.662 66.4241 213.544 65.4049C214.132 64.7231 214.514 63.9042 214.515 62.8702C214.515 62.8366 214.514 62.7804 214.514 62.7685L214.515 62.7675V18.0283C214.442 18.0441 214.359 18.0619 214.266 18.0836C213.893 18.1704 213.376 18.3085 212.801 18.5118Z" fill="black"/>
  <path d="M271.205 20.6144C270.324 19.5941 268.955 18.9183 267.807 18.5128C267.233 18.3085 266.716 18.1704 266.343 18.0836C266.25 18.0628 266.168 18.0441 266.093 18.0293V67.8735C266.168 67.8577 266.25 67.84 266.343 67.8193C266.716 67.7324 267.233 67.5943 267.807 67.3901C268.955 66.9845 270.324 66.3087 271.205 65.2885C271.793 64.6067 272.174 63.7877 272.175 62.7537V23.1491C272.174 22.1151 271.793 21.2961 271.205 20.6144Z" fill="black"/>
  <path d="M225.271 38.2042C224.389 37.184 223.021 36.5081 221.873 36.1026C221.299 35.8984 220.781 35.7602 220.408 35.6734C220.34 35.6576 220.282 35.6458 220.224 35.6339V35.6191H220.159V62.8866C220.161 63.9206 220.542 64.7395 221.13 65.4203C222.011 66.4405 223.379 67.1164 224.528 67.5219C225.101 67.7261 225.62 67.8643 225.992 67.9511C226.086 67.9728 226.168 67.9906 226.241 68.0063V40.7389C226.239 39.7049 225.859 38.886 225.271 38.2042Z" fill="black"/>
  <path d="M197.891 50.348L189.324 48.2247C186.469 47.4127 185.042 47.1621 185.042 44.2267C185.042 40.9155 186.717 40.8533 192.118 40.8533C192.91 40.8533 200.89 41.2944 202.062 40.0847C202.718 39.4079 203.283 38.7389 203.632 37.8943C203.706 37.7177 203.773 37.5431 203.833 37.3744C204.005 36.887 204.122 36.4469 204.195 36.1312C204.209 36.073 204.218 36.0246 204.228 35.9753H204.241V35.92C204.241 35.92 192.657 35.926 191.188 35.9023C182.744 35.8401 179.207 37.2925 179.207 44.2267C179.207 49.2232 181.067 51.5981 186.096 52.9094L194.538 55.0337C197.395 55.7825 199.133 56.0953 199.133 58.9063C199.133 61.591 197.706 62.4011 193.09 62.5836C193.089 62.5925 193.092 62.5757 193.09 62.5836C192.551 62.5905 191.968 62.5925 191.33 62.5925C190.833 62.5925 187.517 62.4198 184.82 62.5875C183.211 62.6872 181.823 62.9092 181.386 63.3611C180.78 63.9856 180.259 64.6102 179.906 65.366C179.877 65.4282 179.842 65.4864 179.814 65.5505C179.741 65.7271 179.673 65.9027 179.613 66.0715C179.441 66.5589 179.326 66.9979 179.253 67.3146C179.239 67.3719 179.228 67.4212 179.218 67.4696H179.207V67.5248C179.207 67.5248 190.639 67.5465 191.806 67.5465C200.871 67.5465 204.967 66.403 204.967 58.9063C204.967 53.5961 202.796 51.6603 197.891 50.348Z" fill="black"/>
  <path d="M40.0378 44.6964C38.0072 41.5805 34.4671 40.0719 33.2693 39.6506C34.0626 39.4138 35.6817 38.6649 37.0265 36.5278C38.0911 34.8367 38.8163 32.5072 38.8242 29.858V29.8165C38.8242 27.8116 38.4206 26.0929 37.6333 24.6563C36.8479 23.2187 34.9239 21.6055 33.1252 20.7629C29.6374 19.128 24.6577 18.9317 21.1373 18.9307H21.0643L9.56865 18.9297V38.3294L5.14742 38.3364V38.3433C4.16076 38.359 3.34577 38.5485 2.66695 39.0635C1.6201 39.8617 0.93733 40.9737 0.526878 41.9949C0.320666 42.506 0.181543 42.9125 0.0937304 43.245L0.0374914 43.464L0 43.612H9.56865V67.0887H23.8881C27.2368 67.0887 29.9936 66.7858 32.1573 66.1839C34.3161 65.5821 35.6146 64.5757 37.432 63.1489L37.435 63.147C38.9594 61.965 40.1749 60.4613 41.0777 58.632C41.9795 56.8057 42.4334 54.6982 42.4334 52.3075C42.4334 49.9326 41.5898 47.0861 40.0378 44.6964ZM15.829 24.2508H20.8383C22.9813 24.2508 25.2901 24.3198 26.7455 24.4609C28.2028 24.603 29.4469 24.9681 30.479 25.5591C31.3561 26.0642 31.9965 26.7253 32.3941 27.5423C32.7898 28.3572 32.9861 29.3538 32.9861 30.5309C32.9861 31.9467 32.773 33.1731 32.3467 34.2131C31.9185 35.257 31.1854 36.1104 30.1573 36.7666C29.1204 37.4267 27.5012 37.8529 26.3034 38.0601C25.1056 38.2673 23.5013 38.3699 21.4875 38.3689H18.2898L15.829 38.3729V24.2508ZM33.2259 59.7094L33.217 59.7154C32.0586 60.4988 30.5786 61.0365 28.777 61.3295C26.9754 61.6226 24.4969 61.7686 21.6819 61.7686H15.828V43.6643L23.2724 43.6259C25.3947 43.6259 27.368 43.7058 28.8559 43.8696C30.3448 44.0333 31.6156 44.3856 32.6635 44.9322C34.2115 45.7383 35.286 46.723 35.881 47.8892C36.474 49.0525 36.766 50.6124 36.766 52.568C36.7532 57.7036 34.4641 58.8382 33.2259 59.7094Z" fill="black"/>
</svg>
